<svg width="33" height="33" viewBox="0 0 33 33" fill="none" xmlns="http://www.w3.org/2000/svg">
<path d="M32.5 16.5C32.5 25.3366 25.3366 32.5 16.5 32.5C7.66344 32.5 0.5 25.3366 0.5 16.5C0.5 7.66344 7.66344 0.5 16.5 0.5C25.3366 0.5 32.5 7.66344 32.5 16.5Z" stroke="#1A1A1A"/>
<path d="M19.875 9C18.5625 9 17.3251 9.65398 16.5 10.7167C15.6749 9.65398 14.4375 9 13.125 9C10.7999 9 9 10.9618 9 13.4959C9 16.602 11.5499 19.0954 15.4124 22.9371L16.5 24L17.5876 22.9371C21.45 19.0954 24 16.602 24 13.4959C24 10.9618 22.2001 9 19.875 9ZM16.9628 21.8616L16.8107 22.0129L16.5 22.3165L16.1893 22.0129L16.0374 21.8618C14.2194 20.0539 12.6494 18.4925 11.6114 17.0964C10.6034 15.7404 10.1538 14.63 10.1538 13.4959C10.1538 12.6027 10.4575 11.7798 11.009 11.1789C11.5585 10.5799 12.31 10.25 13.125 10.25C14.0673 10.25 14.9989 10.7253 15.6169 11.5213L16.5 12.6586L17.383 11.5213C18.0011 10.7253 18.9326 10.25 19.875 10.25C20.69 10.25 21.4415 10.5799 21.9911 11.1788C22.5425 11.7798 22.8462 12.6027 22.8462 13.4959C22.8462 14.63 22.3966 15.7404 21.3886 17.0963C20.3507 18.4924 18.7808 20.0537 16.9628 21.8616Z" fill="#1A1A1A"/>
</svg>
