<svg width="33" height="33" viewBox="0 0 33 33" fill="none" xmlns="http://www.w3.org/2000/svg">
<path d="M32.5 16.5C32.5 25.3366 25.3366 32.5 16.5 32.5C7.66344 32.5 0.5 25.3366 0.5 16.5C0.5 7.66344 7.66344 0.5 16.5 0.5C25.3366 0.5 32.5 7.66344 32.5 16.5Z" stroke="#1A1A1A"/>
<path d="M23.7536 21.5706L20.9212 18.7465C21.835 17.5823 22.3309 16.1446 22.329 14.6645C22.329 13.3464 21.9382 12.0579 21.2059 10.9619C20.4736 9.86594 19.4327 9.01173 18.2149 8.50731C16.9971 8.00289 15.6571 7.87091 14.3643 8.12806C13.0715 8.38521 11.884 9.01995 10.952 9.952C10.0199 10.884 9.38521 12.0715 9.12806 13.3643C8.87091 14.6571 9.00289 15.9971 9.50731 17.2149C10.0117 18.4327 10.8659 19.4736 11.9619 20.2059C13.0579 20.9382 14.3464 21.329 15.6645 21.329C17.1446 21.3309 18.5823 20.835 19.7465 19.9212L22.5706 22.7536C22.6481 22.8317 22.7402 22.8936 22.8417 22.9359C22.9432 22.9782 23.0521 23 23.1621 23C23.2721 23 23.381 22.9782 23.4825 22.9359C23.584 22.8936 23.6761 22.8317 23.7536 22.7536C23.8317 22.6761 23.8936 22.584 23.9359 22.4825C23.9782 22.381 24 22.2721 24 22.1621C24 22.0521 23.9782 21.9432 23.9359 21.8417C23.8936 21.7402 23.8317 21.6481 23.7536 21.5706ZM10.6661 14.6645C10.6661 13.6759 10.9593 12.7095 11.5085 11.8876C12.0577 11.0656 12.8384 10.4249 13.7517 10.0466C14.6651 9.6683 15.6701 9.56931 16.6397 9.76218C17.6093 9.95504 18.4999 10.4311 19.1989 11.1301C19.898 11.8292 20.374 12.7198 20.5669 13.6894C20.7597 14.659 20.6607 15.664 20.2824 16.5773C19.9041 17.4907 19.2635 18.2713 18.4415 18.8205C17.6195 19.3698 16.6531 19.6629 15.6645 19.6629C14.3389 19.6629 13.0675 19.1363 12.1301 18.1989C11.1927 17.2615 10.6661 15.9902 10.6661 14.6645Z" fill="#1A1A1A"/>
</svg>
