<svg width="33" height="33" viewBox="0 0 33 33" fill="none" xmlns="http://www.w3.org/2000/svg">
<path d="M32.5 16.5C32.5 25.3366 25.3366 32.5 16.5 32.5C7.66344 32.5 0.5 25.3366 0.5 16.5C0.5 7.66344 7.66344 0.5 16.5 0.5C25.3366 0.5 32.5 7.66344 32.5 16.5Z" stroke="#1A1A1A"/>
<path d="M14.4167 21.6316C14.1694 21.6316 13.9278 21.701 13.7222 21.8312C13.5166 21.9613 13.3564 22.1462 13.2618 22.3626C13.1672 22.579 13.1425 22.8171 13.1907 23.0468C13.2389 23.2765 13.358 23.4875 13.5328 23.6532C13.7076 23.8188 13.9303 23.9316 14.1728 23.9772C14.4153 24.0229 14.6666 23.9995 14.895 23.9099C15.1234 23.8202 15.3187 23.6684 15.456 23.4737C15.5934 23.279 15.6667 23.05 15.6667 22.8158C15.6667 22.5017 15.535 22.2005 15.3005 21.9784C15.0661 21.7563 14.7482 21.6316 14.4167 21.6316ZM23.1667 19.2632H13.1667C12.9457 19.2632 12.7337 19.18 12.5774 19.0319C12.4211 18.8839 12.3333 18.6831 12.3333 18.4737C12.3333 18.2643 12.4211 18.0635 12.5774 17.9154C12.7337 17.7674 12.9457 17.6842 13.1667 17.6842H20.2427C20.7855 17.6826 21.3132 17.5143 21.7466 17.2046C22.18 16.8949 22.4958 16.4605 22.6467 15.9665L23.9679 11.5854C24.0033 11.468 24.0095 11.3443 23.9859 11.2241C23.9623 11.104 23.9096 10.9907 23.8319 10.8931C23.7543 10.7955 23.6538 10.7164 23.5383 10.6619C23.4229 10.6074 23.2957 10.579 23.1667 10.5789H12.9492C12.7767 10.119 12.4587 9.72056 12.0385 9.43801C11.6183 9.15546 11.1164 9.00251 10.6012 9H9.83333C9.61232 9 9.40036 9.08318 9.24408 9.23123C9.0878 9.37929 9 9.58009 9 9.78947C9 9.99886 9.0878 10.1997 9.24408 10.3477C9.40036 10.4958 9.61232 10.5789 9.83333 10.5789H10.6012C10.7821 10.5795 10.9579 10.6356 11.1023 10.7388C11.2468 10.842 11.352 10.9868 11.4023 11.1514L11.5319 11.5815L11.5321 11.5854L12.8993 16.1188C12.2631 16.1836 11.6774 16.4771 11.2627 16.9387C10.848 17.4004 10.636 17.9951 10.6703 18.6005C10.7045 19.2058 10.9825 19.7756 11.4469 20.1926C11.9113 20.6096 12.5268 20.8421 13.1667 20.8421H23.1667C23.3877 20.8421 23.5996 20.7589 23.7559 20.6109C23.9122 20.4628 24 20.262 24 20.0526C24 19.8433 23.9122 19.6424 23.7559 19.4944C23.5996 19.3463 23.3877 19.2632 23.1667 19.2632ZM22.0619 12.1579L21.0443 15.5324C20.994 15.6972 20.8887 15.8421 20.7442 15.9453C20.5997 16.0486 20.4237 16.1047 20.2427 16.1053H14.6287L14.4162 15.4009L13.4387 12.1579H22.0619ZM21.0833 21.6316C20.8361 21.6316 20.5944 21.701 20.3889 21.8312C20.1833 21.9613 20.0231 22.1462 19.9285 22.3626C19.8339 22.579 19.8091 22.8171 19.8574 23.0468C19.9056 23.2765 20.0246 23.4875 20.1994 23.6532C20.3743 23.8188 20.597 23.9316 20.8395 23.9772C21.0819 24.0229 21.3333 23.9995 21.5617 23.9099C21.7901 23.8202 21.9853 23.6684 22.1227 23.4737C22.26 23.279 22.3333 23.05 22.3333 22.8158C22.3333 22.5017 22.2016 22.2005 21.9672 21.9784C21.7328 21.7563 21.4149 21.6316 21.0833 21.6316Z" fill="#1A1A1A"/>
</svg>
